<?xml version="1.0" encoding="UTF-8"?>
<svg id="Calque_1" xmlns="http://www.w3.org/2000/svg" viewBox="0 0 366.21 135.6">
  <defs>
    <style>
      .cls-1 {
        font-family: Mundial-Regular, Mundial;
        font-size: 114px;
      }
    </style>
  </defs>
  <g>
    <path d="M308.41,116c-11.54-.01-19.89-3.56-26.83-10.47-3.91-3.89-3.32-8.33,1.64-11.02,5.34-2.89,9.29-6.98,11.57-12.59,3.68-9.04,2.53-17.62-3.58-25.1-7.15-8.74-17.81-11.29-28.16-7.4-11.03,4.14-17.42,15.72-15.16,27.57,1.49,7.85,5.71,13.71,12.84,17.44,4.82,2.52,5.56,7.23,1.78,11.07-12.38,12.57-31.74,14.07-46.06,3.65-1.84-1.34-1.86-2.5-.43-4.04,1.58-1.71,2.8-4.19,4.74-5,2.04-.85,3.77,1.82,5.74,2.75,7.44,3.51,14.83,3.24,22.21-.08,2.37-1.07,2.36-1.63.49-3.26-14.69-12.9-16.78-33.85-4.89-48.98,7.13-9.07,16.65-13.49,28-13.45,17.8.06,31.9,13.02,34.53,29.24,2.14,13.2-2.03,24.07-11.77,32.99-2.01,1.84-1.95,2.38.61,3.51,9.02,4,17.65,3.44,25.74-2.39,1.3-.93,2.12-.96,3.09.37,1.08,1.47,2.29,2.86,3.53,4.2,1.55,1.69,1.31,2.99-.54,4.29-6.25,4.39-13.12,6.78-19.09,6.72Z"/>
    <path d="M307.2,130.49c0,5.05-.01,5.24-5.02,4.93-10.33-.64-19.57-4.46-27.95-10.37-1.55-1.09-2.55-1.3-4.14-.16-9.15,6.59-19.31,10.29-30.65,10.71-1.92.07-2.61-.63-2.63-2.36-.02-1.83,0-3.67,0-5.5,0-1.82.82-2.74,2.71-2.8,10.79-.36,19.93-4.75,28.03-11.63,3.73-3.17,5.66-3.03,9.3.14,7.9,6.89,16.98,11.06,27.57,11.46,2.04.08,2.91.83,2.79,2.84-.06.91,0,1.83,0,2.75Z"/>
    <path d="M264.27,87.79c-2.75.02-5.42-2.52-5.44-5.16-.01-2.78,2.67-5.48,5.46-5.49,2.65-.02,5.22,2.66,5.19,5.4-.04,3.03-2.22,5.23-5.21,5.25Z"/>
    <path d="M285.22,82.61c-.08,2.96-2.56,5.27-5.55,5.19-2.78-.08-5.07-2.64-4.95-5.51.11-2.7,2.8-5.25,5.41-5.14,2.75.11,5.16,2.7,5.09,5.47Z"/>
  </g>
  <text class="cls-1" transform="translate(0 94.8)"><tspan x="0" y="0" xml:space="preserve">pulp   s</tspan></text>
</svg>